<svg id="Capa_1" data-name="Capa 1" xmlns="http://www.w3.org/2000/svg" viewBox="0 0 512 512"><defs><style>.cls-1{fill:#adff2f;}</style></defs><g id="Layer_2" data-name="Layer 2"><rect class="cls-1" width="512" height="510"/></g><path d="M407.07,377a10,10,0,1,0,2.93,7.07A10.08,10.08,0,0,0,407.07,377Z"/><path d="M472,0H40A40,40,0,0,0,0,40V354.08a40,40,0,0,0,40,40H197v50.2A58.08,58.08,0,0,0,144.67,502a10,10,0,0,0,10,10H357.33a10,10,0,0,0,10-10A58.06,58.06,0,0,0,313,444.13V394.08h46.67a10,10,0,0,0,0-20H40a20,20,0,0,1-20-20V40A20,20,0,0,1,40,20H472a20,20,0,0,1,20,20V354.08a20,20,0,0,1-20,20H434.67a10,10,0,0,0,0,20H472a40,40,0,0,0,40-40V40A40,40,0,0,0,472,0ZM217,394.08h76V444H217ZM309.33,464A38.07,38.07,0,0,1,346,492H166a38.07,38.07,0,0,1,36.67-28Z"/><path d="M262.07,345a10,10,0,1,0,2.93,7.07A10.08,10.08,0,0,0,262.07,345Z"/><path d="M146.2,183.31l49-49a10,10,0,0,0-14.14-14.14L125,176.24a10,10,0,0,0,0,14.15l56.07,56.06a10,10,0,0,0,14.14-14.14Z"/><path d="M387,176.24,331,120.18a10,10,0,0,0-14.14,14.14l49,49-49,49A10,10,0,1,0,331,246.45L387,190.39A10,10,0,0,0,387,176.24Z"/><path d="M273.56,121.53a10,10,0,0,0-12.25,7.07L231.37,240.33a10,10,0,0,0,7.07,12.25,10.15,10.15,0,0,0,2.6.34,10,10,0,0,0,9.65-7.41l29.94-111.73A10,10,0,0,0,273.56,121.53Z"/><path d="M462,40.08H303a10,10,0,0,0,0,20H452v250H60v-250H213.5a10,10,0,0,0,0-20H50a10,10,0,0,0-10,10v270a10,10,0,0,0,10,10H462a10,10,0,0,0,10-10v-270A10,10,0,0,0,462,40.08Z"/><path d="M265.07,43A10,10,0,1,0,268,50.08,10.08,10.08,0,0,0,265.07,43Z"/></svg>